<?xml version="1.0" encoding="utf-8"?>
<!-- Generator: Adobe Illustrator 21.0.0, SVG Export Plug-In . SVG Version: 6.00 Build 0)  -->
<svg version="1.1" id="Layer_1" xmlns:sketch="http://www.bohemiancoding.com/sketch/ns"
	 xmlns="http://www.w3.org/2000/svg" xmlns:xlink="http://www.w3.org/1999/xlink" x="0px" y="0px" viewBox="0 0 49 20"
	 style="enable-background:new 0 0 49 20;" xml:space="preserve">
<style type="text/css">
	.st0{fill:#57844D;}
</style>
<title>stripe</title>
<desc>Created with Sketch.</desc>
<g>
	<path class="st0" d="M48.6,14.2V6.9c0-1-0.7-1.5-2.2-1.5h-6.4v8.8h3.7V7.9h1.2v6.4H48.6z"/>
	<path class="st0" d="M28.8,16.1V5.4h-3.7v6.4h-1.2V5.4h-3.7v7.3c0,1,0.7,1.5,2.2,1.5h2.7v0.9h-4.9v2.4h6.4
		C28.1,17.5,28.8,17.1,28.8,16.1"/>
	<path class="st0" d="M18.9,14.2v-12h-3.7v9.6H14V5.4h-1.5c-1.6,0-2.2,0.4-2.2,1.5v5.9c0,1,0.7,1.5,2.2,1.5H18.9z"/>
	<path class="st0" d="M9,14.2V6.9c0-1-0.7-1.5-2.2-1.5H0.4v2.4h4.9v4H4.1V8.7H2.6c-1.6,0-2.2,0.4-2.2,1.5v2.6c0,1,0.7,1.5,2.2,1.5H9
		z"/>
	<path class="st0" d="M30,5.4v7.3c0,1,0.7,1.5,2.2,1.5h6.4v-2.4h-4.9v-4h1.2V11h1.5c1.6,0,2.2-0.4,2.2-1.5V6.9c0-1-0.7-1.5-2.2-1.5
		H30z"/>
</g>
</svg>
